<svg xmlns="http://www.w3.org/2000/svg" viewBox="0 0 100 100">
<rect width="100" height="100" rx="23.5" fill="#0A2540"/>
<g transform="translate(27.19,73.73) scale(0.034809,-0.034809)">
<path d="M663.1009995639324 1310.2199042513967 604.0027874410152 1297.464167073369Q580.3555231019855 1290.7506797164679 567.7092488817871 1277.5018767118454Q555.0629746615887 1264.253073707223 555.0629746615887 1242.824871480465V161.7524130269885Q555.0629746615887 124.78748112916946 576.2019585855305 109.08333208784461Q597.3409425094724 93.37918304651976 640.3759566396475 93.37918304651976H808.5028744488955Q864.1745732799172 93.37918304651976 904.5719429813325 108.82129473239183Q944.9693126827478 124.26340641826391 978.3507387153804 164.17911718413234Q1011.732164748013 204.09482795000076 1045.2119014561176 278.4155953153968L1109.211630962789 420.82617301493883Q1120.3502348661423 443.9486295878887 1136.2696478404105 452.1079075112939Q1152.1890608146787 460.26718543469906 1173.689440265298 454.7979743927717Q1196.2119212523103 449.39508145302534 1205.227942854166 434.03237007558346Q1214.2439644560218 418.6696586981416 1207.0852392539382 392.41356905549765L1116.732103586197 32.42295912653208Q1106.7945562973619 -3.0569598004221916 1091.2971606962383 -19.731652315706015Q1075.7997650951147 -36.40634483098984 1046.6945478022099 -36.40634483098984Q1026.4633061513305 -36.40634483098984 1006.8705226890743 -27.30475862324238Q987.2777392268181 -18.20317241549492 962.831345308572 -9.10158620774746Q938.384951390326 0 902.3149445727468 0H156.4503915309906Q127.81340190768242 0 114.20646850392222 11.705918870866299Q100.59953510016203 23.411837741732597 100.59953510016203 42.689045548439026Q100.59953510016203 77.4847603738308 139.99454088509083 89.78009574860334L199.092753008008 102.53583292663097Q223.3399929329753 109.29353684931993 235.68627936020494 122.5202315710485Q248.03256578743458 135.74692629277706 248.03256578743458 157.17512851953506V1242.824871480465Q248.03256578743458 1264.253073707223 235.68627936020494 1277.5018767118454Q223.3399929329753 1290.7506797164679 199.092753008008 1297.464167073369L139.99454088509083 1310.2199042513967Q100.59953510016203 1322.5152396261692 100.59953510016203 1357.310954451561Q100.59953510016203 1377.5218441560864 114.20646850392222 1388.7609220780432Q127.81340190768242 1400 156.4503915309906 1400H646.6451489180326Q675.6379463896155 1400 689.0669758692384 1388.7609220780432Q702.4960053488612 1377.5218441560864 702.4960053488612 1357.310954451561Q702.4960053488612 1322.5152396261692 663.1009995639324 1310.2199042513967Z" fill="#C6F26B"/>
</g>
</svg>